<svg xmlns="http://www.w3.org/2000/svg" viewBox="0 0 198.14 90"><defs><style>.a{fill:#fff}.c{fill:#d91a32}</style></defs><path class="a" d="M471,139.88H456.18a6.57,6.57,0,0,0-6.57,6.57v50.3a6.58,6.58,0,0,0,6.57,6.58H471a6.59,6.59,0,0,0,6.58-6.58v-50.3a6.58,6.58,0,0,0-6.57-6.57" transform="translate(-449.62 -139.88)"/><path d="M470.4,195.78a1,1,0,0,1-.3-1.31c-0.53-2.2-2.28-3.53-1.37-4.25-0.22-.73-0.68-1.64-0.66-1.64a27.28,27.28,0,0,1-5.43-4.47,8.59,8.59,0,0,1-1.44-1.46,42.9,42.9,0,0,1-4.61-6.82l-1.3-.18c-0.59-2.42-2.57-4.44-2.62-6.87a13.68,13.68,0,0,1,.58-3.27,4.39,4.39,0,0,1,.92-1v-0.65c-2.84.08-2-.21-2.51-1.31a1.58,1.58,0,0,1,0-1.46,32.35,32.35,0,0,1,2.17-5.07c0.16-.55.71-1.89,0.71-1.89,2.11-4.31,2.9-4,5.42-4.23l0.12-.18c2.52-.11,2.1-0.3,2.46-2.73-0.37.16-.48-0.76-0.48-0.76-0.2-1.38.38-1.12,0.66-1.14,0.06-2.27.29-3,1.93-3.61h-8.48a5,5,0,0,0-5,5v50.3a5,5,0,0,0,5,5H471c-1.7-.92-0.7-2.67-0.64-6" transform="translate(-449.62 -139.88)" fill="#00428b"/><path class="c" d="M467.35 151.51l0 .22c.45.26.68.48 1.14.77 1.21.76 2.7 2.12 2.52 6.79.34 1 .49 3 .8 3.66a10.32 10.32 0 0 1 1.24 3.25 6.7 6.7 0 0 0 .42 2c1.25.28.89.41 1.08.62s.92.24.92.91a4.42 4.42 0 0 1 .58 1v-24.3a5 5 0 0 0-5-5h-4.8a2.29 2.29 0 0 1 1.46 1.11c.62.05 1.36 1.44.21 3.49.51.34.11.85-.25 1.43a.67.67 0 0 1-.57.5c-.44.92-1 1.81-1.36 1.86a.64.64 0 0 0 0 .73 6.81 6.81 0 0 1 1.65 1M476.05 174a4.48 4.48 0 1 1-5.22-6c-.52-1.29-1.6-3.38-1.93-4.07s-1-4.94-1.2-5.78a7.12 7.12 0 0 0-1.93 1.18c-.11.11-1.42 3.53-1.48 3.71s0 .57 0 .57a1.5 1.5 0 0 1 1 1.2c.37 1.12 1.49 5.22 1.49 5.22a2.72 2.72 0 0 1-.32.29c1.41 4.73.92 6.77 1.55 8.16.8 2 1 1.7 1.7 3.34.49 1.2 1 5.91 1.22 6.12a4.39 4.39 0 0 1 1.18 2.27c0 .55-.65 2.17-.41 3.12a7.86 7.86 0 0 0 .48 2 1 1 0 0 1 .12.68.39.39 0 0 0-.07.27c.42 1.49 1.78 4-.42 5.35h0a5 5 0 0 0 4.22-5V174z" transform="translate(-449.62 -139.88)"/><path class="a" d="M492.33 201.85h-7.1v-60.3h11l7.35 49.75c-1.1-11.82-2.53-30.91-2.53-41v-8.78h7.1v60.3H498.07l-6.76-48.31c.59 10.81 1 23.73 1 31v17.31zM520.28 175.67v18.58h1.35c2.53 0 3.29-1.44 3.29-4.31V179.72c0-3-.93-4.05-3.63-4.05h-1zm0-26.52v19.93h1c2.87 0 3.63-1.1 3.63-4.39V153.2c0-2.79-.85-4.05-3.29-4.05h-1.35zm-8.11 52.7v-60.3h10.05c6.67 0 10.81 3.63 10.81 12.08v8.87c0 5.49-1.69 8.28-4.05 9.71 2.36 1.52 4.05 4.22 4.05 8.87v8.78c0 8.28-4.39 12-10.81 12H512.17zM543.5 183.69h4.31l-.68-11.06c-.25-4.39-.93-18.33-1.43-25.84h-.34l-1.18 25.84zm4.73 6.84h-5.07l-.68 11.32h-8.19l5.91-60.3h11.48l5.74 60.3H548.9zM583.15 191.21c0 8.2-2.87 11.16-7.86 11.16-5.41 0-8-3-8-11.16v-9.13h4.31v10.06c0 4.31.76 6.08 3.72 6.08 2.54 0 3.55-1.77 3.55-6.08v-3.47c0-4.65-.42-7.44-5.41-14.37-4-5.58-6.17-9-6.17-16.73v-5.41c0-8.2 3-11.15 8-11.15 5.32 0 7.86 3 7.86 11.15v9h-4.31v-10c0-4.31-.59-6.08-3.55-6.08-2.54 0-3.72 1.77-3.72 6.08v5.49c0 6.25 1.1 8.45 4.9 13.86 5.41 7.61 6.68 10 6.68 17v3.63zM595.47 202c-4.22 0-6.42-1.52-6.42-6.76v-37h-2.62v-3.72H589v-8.7l4.06-1v9.72H597v3.72H593.1v36.85c0 2.28.93 3.13 3 3.13h1.18v3.64a12.68 12.68 0 0 1-1.86.17M615.59 192.39c0 7.86-3 10-7.61 10s-7.61-2.11-7.61-10V164.16c0-7.78 3-10.14 7.61-10.14s7.61 2.11 7.61 10v28.4zM604.43 163V193.4c0 3.38.68 5.32 3.55 5.32s3.55-1.94 3.55-5.32V163c0-3.38-.68-5.32-3.55-5.32s-3.55 1.94-3.55 5.32M624.36 201.85H620.3V154.53H623a10.36 10.36 0 0 1 1.1 3.21c.93-2.54 3.72-3.72 6.76-3.72h.08v4.14h-.34c-3.3 0-6.25 1.27-6.25 3.8v39.89zM640.14 202.36c-4.65 0-7.61-2.11-7.61-10V164.16c0-7.78 3-10.14 7.61-10.14s7.61 2.11 7.61 10v16.9H636.6V193.4c0 3.38.68 5.33 3.55 5.33s3.55-1.94 3.55-5.33v-6.25h4.06v5.24c0 7.86-3 10-7.61 10m-3.55-25h7.1V163c0-3.38-.68-5.33-3.55-5.33s-3.55 1.94-3.55 5.33v14.37zM514.38 218.61c2 0 3.32 1.54 3.32 3.82v4.25a.11.11 0 0 1-.11.11h-1.95a.11.11 0 0 1-.11-.11v-4.23a1.63 1.63 0 0 0-1.64-1.84h0a1.79 1.79 0 0 0-1.71 1.79v4.28a.11.11 0 0 1-.11.11h-1.93a.11.11 0 0 1-.11-.11v-7.85a.11.11 0 0 1 .11-.11H512a.11.11 0 0 1 .11.11v.7a3.34 3.34 0 0 1 2.29-.91M544 225.36a.11.11 0 0 0 0 .15 4.56 4.56 0 0 0 3.5 1.31 3.23 3.23 0 0 0 3.15-1.61 2.4 2.4 0 0 0 .22-1c0-2.07-1.79-2.45-3.34-2.55-1.24-.08-1.24-.51-1.24-.66 0-.52.84-.58 1.2-.58a2.37 2.37 0 0 1 1.65.55.11.11 0 0 0 .16 0l1.1-1.28a.11.11 0 0 0 0-.16 4.16 4.16 0 0 0-2.93-1 4.36 4.36 0 0 0-2.16.54 2.18 2.18 0 0 0-1.14 1.95c0 1.44 1.15 2.32 3.24 2.47 1.18.07 1.33.41 1.33.7a1 1 0 0 1-1.13.66h-.05a3.59 3.59 0 0 1-2.37-.91.11.11 0 0 0-.16 0zM524.48 224a2.2 2.2 0 0 0 .47-1.45 2.08 2.08 0 1 0-2.1 2.14 2.22 2.22 0 0 0 1.64-.68m.42-5.23a.11.11 0 0 1 .11-.11h1.93a.11.11 0 0 1 .11.11v7.87a.11.11 0 0 1-.11.11H525a.11.11 0 0 1-.11-.11v-.59a3 3 0 0 1-2.18.65H522.6a4 4 0 0 1-2.84-1.05 4.19 4.19 0 0 1-1.13-3.07 3.78 3.78 0 0 1 4-4.06h0a3.41 3.41 0 0 1 2.22.59v-.34zm-24-2.06v-1.89a.14.14 0 0 0-.14-.14h-7a.14.14 0 0 0-.14.14v11.79a.14.14 0 0 0 .14.14h1.89a.14.14 0 0 0 .14-.14v-4.81a.14.14 0 0 1 .14-.14h3.53a.14.14 0 0 0 .14-.14v-1.89a.14.14 0 0 0-.14-.14H496a.14.14 0 0 1-.14-.14V217a.14.14 0 0 1 .14-.14h4.84a.14.14 0 0 0 .14-.14m41.22 7.51a.11.11 0 0 0-.15 0 2.14 2.14 0 0 1-1.32.49 2.07 2.07 0 0 1 0-4.13 2.14 2.14 0 0 1 1.32.49.11.11 0 0 0 .15 0l1.25-1.31a.11.11 0 0 0 0-.16 3.7 3.7 0 0 0-2.75-1.08 4.14 4.14 0 1 0 0 8.29 3.7 3.7 0 0 0 2.75-1.08.11.11 0 0 0 0-.16zm-10.06 2.52a.11.11 0 0 0 .11-.11v-1.76a.11.11 0 0 0-.11-.11h-1a.76.76 0 0 1-.81-.9v-3h1.77a.11.11 0 0 0 .11-.11v-2a.11.11 0 0 0-.11-.11h-1.76V217a.11.11 0 0 0-.11-.11h-1.95a.11.11 0 0 0-.11.11v6.89a2.61 2.61 0 0 0 2.84 2.89h1.08zM506.28 224a2.19 2.19 0 0 0 .47-1.45 2.08 2.08 0 1 0-2.1 2.14 2.21 2.21 0 0 0 1.63-.68m.42-5.23a.11.11 0 0 1 .11-.11h1.93a.11.11 0 0 1 .11.11v7.87a.11.11 0 0 1-.11.11h-1.93a.11.11 0 0 1-.11-.11v-.59a3 3 0 0 1-2.18.65H504.4a4 4 0 0 1-2.84-1.05 4.18 4.18 0 0 1-1.13-3.07 3.78 3.78 0 0 1 4-4.06h0a3.41 3.41 0 0 1 2.22.59v-.34zm26.69 8h1.95a.11.11 0 0 0 .11-.11v-7.87a.11.11 0 0 0-.11-.11h-1.95a.11.11 0 0 0-.11.11v7.87a.11.11 0 0 0 .11.11m2.19-10.47a1.2 1.2 0 0 0-2.4 0 1.2 1.2 0 0 0 2.4 0M490.39 212.45l-2 3.13a.15.15 0 0 1-.19.06c-4.66-2.34-10 2-14.78.94a.17.17 0 0 1-.11-.07l-3.06-4.71a.21.21 0 0 1 .22-.32 28 28 0 0 0 3.58.59c7.2.39 11.1-3.93 16.32.16a.16.16 0 0 1 0 .22m-5.88 9a.08.08 0 0 0 .1 0l2.45-3.79a.08.08 0 0 0 0-.12c-3.54-1.22-6.84 1.12-11.89 1.25a.21.21 0 0 0-.17.32l5.45 8.41a.13.13 0 0 0 .24-.08l-1.17-5.32a.09.09 0 0 1 .06-.11c.42-.15 3.51-1.2 5-.52" transform="translate(-449.62 -139.88)"/><path class="a" d="M113.1 86.61L105.45 86.61 105.45 76.25 113.06 76.25 113.06 77.86 107.11 77.86 107.11 80.66 112.82 80.66 112.82 82.2 107.11 82.2 107.11 84.98 113.1 84.98 113.1 86.61zM119.35 79.31L121.2 79.31 121.2 79.36 118.74 82.89 121.36 86.57 121.36 86.61 119.53 86.61 117.74 83.96 115.94 86.61 114.11 86.61 114.11 86.57 116.73 82.89 114.27 79.36 114.27 79.31 116.11 79.31 117.74 81.92 119.35 79.31z"/><path class="a" d="M572.19 229.88V219.19h1.43l.09 1.19a2.71 2.71 0 0 1 1.13-1 3.32 3.32 0 0 1 1.45-.33 3.79 3.79 0 0 1 1.5.29 3.54 3.54 0 0 1 1.17.79 3.47 3.47 0 0 1 .75 1.21 4.23 4.23 0 0 1 .27 1.52 4.46 4.46 0 0 1-.26 1.55 3.57 3.57 0 0 1-.73 1.21 3.21 3.21 0 0 1-1.16.79 4 4 0 0 1-1.53.28 4.44 4.44 0 0 1-.7-.06 3 3 0 0 1-.71-.21 3 3 0 0 1-.65-.39 2.14 2.14 0 0 1-.51-.58v4.43h-1.52zm4-4.68a2.36 2.36 0 0 0 .92-.18 2.24 2.24 0 0 0 .73-.49 2.16 2.16 0 0 0 .48-.74 2.54 2.54 0 0 0 .17-.95 2.31 2.31 0 0 0-.62-1.68 2.24 2.24 0 0 0-1.69-.64 2.42 2.42 0 0 0-1 .18 2 2 0 0 0-.72.5 2.24 2.24 0 0 0-.46.74 2.59 2.59 0 0 0 0 1.83 2.29 2.29 0 0 0 .47.75 2.22 2.22 0 0 0 .73.5 2.28 2.28 0 0 0 .92.18M582.75 223.44a1.93 1.93 0 0 0 .73 1.34 2.59 2.59 0 0 0 1.65.5 3.74 3.74 0 0 0 1.17-.2 2.11 2.11 0 0 0 .95-.59l1 1a3.25 3.25 0 0 1-.65.55 4.16 4.16 0 0 1-.78.39 4.34 4.34 0 0 1-.85.23 5.11 5.11 0 0 1-.86.07 4.61 4.61 0 0 1-1.63-.27 3.39 3.39 0 0 1-2-2 4.36 4.36 0 0 1-.28-1.59 4.11 4.11 0 0 1 .28-1.53 3.6 3.6 0 0 1 .79-1.21 3.54 3.54 0 0 1 1.21-.78A4.15 4.15 0 0 1 585 219a4.47 4.47 0 0 1 1.61.27 3.09 3.09 0 0 1 1.21.82 3.32 3.32 0 0 1 .72 1.38 5.37 5.37 0 0 1 .13 1.94h-5.92zm4.46-1.29a1.74 1.74 0 0 0-.65-1.32 2.44 2.44 0 0 0-1.51-.44 2.49 2.49 0 0 0-1.47.44 2 2 0 0 0-.8 1.32h4.43zM591.65 219.19l.1 1a2 2 0 0 1 1-.91 3.35 3.35 0 0 1 1.17-.22 3.08 3.08 0 0 1 1 .17 2.31 2.31 0 0 1 .79.45L595 221a2.23 2.23 0 0 0-.57-.33 2 2 0 0 0-.72-.11 2.25 2.25 0 0 0-.76.13 1.74 1.74 0 0 0-1.05 1 2.24 2.24 0 0 0-.16.88v4h-1.52v-7.3h1.42zM596.56 217a.83.83 0 0 1 .3-.7 1 1 0 0 1 1.3 0 .83.83 0 0 1 .3.7.85.85 0 0 1-.3.71 1 1 0 0 1-1.3 0 .85.85 0 0 1-.3-.71m1.7 9.44h-1.52v-7.33h1.52v7.33zM601.48 223.44a1.94 1.94 0 0 0 .73 1.34 2.6 2.6 0 0 0 1.65.5 3.75 3.75 0 0 0 1.17-.2 2.11 2.11 0 0 0 .95-.59l1 1a3.21 3.21 0 0 1-.65.55 4.15 4.15 0 0 1-.78.39 4.37 4.37 0 0 1-.85.23 5.14 5.14 0 0 1-.86.07 4.61 4.61 0 0 1-1.63-.27 3.39 3.39 0 0 1-2-2 4.32 4.32 0 0 1-.28-1.59 4.08 4.08 0 0 1 .28-1.53 3.6 3.6 0 0 1 .79-1.21 3.53 3.53 0 0 1 1.21-.78 4.17 4.17 0 0 1 1.56-.28 4.47 4.47 0 0 1 1.61.27 3.11 3.11 0 0 1 1.21.82 3.32 3.32 0 0 1 .72 1.38 5.4 5.4 0 0 1 .13 1.94h-5.92zm4.46-1.29a1.75 1.75 0 0 0-.65-1.32 2.44 2.44 0 0 0-1.51-.44 2.48 2.48 0 0 0-1.47.44 2 2 0 0 0-.8 1.32h4.43zM614.49 226.49v-3.91A2.27 2.27 0 0 0 614 221a1.82 1.82 0 0 0-1.46-.59 1.92 1.92 0 0 0-1.48.66 2.19 2.19 0 0 0-.41.71 2.48 2.48 0 0 0-.15.85v3.82H609v-7.31h1.39l.09 1.07a3.15 3.15 0 0 1 2.46-1.2 3.29 3.29 0 0 1 1.24.23 2.8 2.8 0 0 1 1 .67 3.22 3.22 0 0 1 .67 1.1 4.37 4.37 0 0 1 .24 1.52v3.92h-1.54zM624.16 225.55a3.79 3.79 0 0 1-1.3.88 4.07 4.07 0 0 1-1.47.26 4.48 4.48 0 0 1-1.49-.24 3.45 3.45 0 0 1-1.23-.73 3.38 3.38 0 0 1-.83-1.2 4.71 4.71 0 0 1 0-3.33 3.37 3.37 0 0 1 .83-1.2 3.52 3.52 0 0 1 1.22-.73 4.51 4.51 0 0 1 1.5-.24 3.8 3.8 0 0 1 1.4.25 3.72 3.72 0 0 1 1.24.83l-1 1a2.42 2.42 0 0 0-.79-.47 2.57 2.57 0 0 0-.87-.16 2.47 2.47 0 0 0-.92.17 2.25 2.25 0 0 0-.75.48 2.16 2.16 0 0 0-.5.75 2.83 2.83 0 0 0 0 2 2.16 2.16 0 0 0 .5.74 2 2 0 0 0 .74.45 2.7 2.7 0 0 0 .9.15 2.82 2.82 0 0 0 .92-.16 2 2 0 0 0 .81-.53zM626.48 223.44a1.93 1.93 0 0 0 .73 1.34 2.59 2.59 0 0 0 1.65.5 3.74 3.74 0 0 0 1.17-.2 2.11 2.11 0 0 0 .95-.59l1 1a3.25 3.25 0 0 1-.65.55 4.16 4.16 0 0 1-.78.39 4.34 4.34 0 0 1-.85.23 5.11 5.11 0 0 1-.86.07 4.61 4.61 0 0 1-1.63-.27 3.39 3.39 0 0 1-2-2 4.36 4.36 0 0 1-.28-1.59 4.11 4.11 0 0 1 .28-1.53 3.58 3.58 0 0 1 .79-1.21 3.52 3.52 0 0 1 1.21-.78 4.15 4.15 0 0 1 1.56-.28 4.47 4.47 0 0 1 1.61.27 3.09 3.09 0 0 1 1.21.82 3.32 3.32 0 0 1 .72 1.38 5.37 5.37 0 0 1 .13 1.94h-5.92zm4.46-1.29a1.74 1.74 0 0 0-.65-1.32 2.43 2.43 0 0 0-1.51-.44 2.49 2.49 0 0 0-1.47.44 2 2 0 0 0-.8 1.32h4.43zM466.66 224.57H461l-1 2.18h-1.76L463 216.39h1.81l4.65 10.36h-1.76zm-2.8-6.44l-2.19 4.93h4.38z" transform="translate(-449.62 -139.88)"/></svg>